<!DOCTYPE svg PUBLIC "-//W3C//DTD SVG 1.1//EN" "http://www.w3.org/Graphics/SVG/1.1/DTD/svg11.dtd"><svg width="2066px" height="2066px" xmlns="http://www.w3.org/2000/svg" version="1.1" style="fill-rule:evenodd;clip-rule:evenodd;stroke-linecap:round;stroke-linejoin:round;stroke-miterlimit:1.5;"><path d="M1033,810.000C1156.163,810.000 1256.000,909.837 1256.000,1033C1256.000,1156.163 1156.163,1256.000 1033,1256.000C909.837,1256.000 810.000,1156.163 810.000,1033C810.000,909.837 909.837,810.000 1033,810.000ZM1033,970C1067.795,970 1096,998.205 1096,1033C1096,1067.795 1067.795,1096 1033,1096C998.205,1096 970,1067.795 970,1033C970,998.205 998.205,970 1033,970Z" style="fill:rgb(0,95,255);fill-opacity:0.25;"/><clipPath id="_clip1"><path d="M1033,810.000C1156.163,810.000 1256.000,909.837 1256.000,1033C1256.000,1156.163 1156.163,1256.000 1033,1256.000C909.837,1256.000 810.000,1156.163 810.000,1033C810.000,909.837 909.837,810.000 1033,810.000Z"/></clipPath><g clip-path="url(#_clip1)"><circle r="223" cx="1033" cy="1033" style="fill:none;stroke:rgb(0,95,255);stroke-opacity:0.6;stroke-width:2px;"/></g></svg>