<!DOCTYPE svg PUBLIC "-//W3C//DTD SVG 1.1//EN" "http://www.w3.org/Graphics/SVG/1.1/DTD/svg11.dtd"><svg contentScriptType="application/ecmascript" xmlns:serif="http://www.serif.com/" width="1054px" xmlns:xlink="http://www.w3.org/1999/xlink" zoomAndPan="magnify" style="fill-rule:evenodd;clip-rule:evenodd;stroke-linecap:round;stroke-linejoin:round;stroke-miterlimit:1.5;" contentStyleType="text/css" height="1054px" preserveAspectRatio="xMidYMid meet" xmlns="http://www.w3.org/2000/svg" xml:space="preserve" version="1.1"><path id="_7-" d="M527,199.756C707.611,199.756 854.244,346.389 854.244,527C854.244,707.611 707.611,854.244 527,854.244C346.389,854.244 199.756,707.611 199.756,527C199.756,346.389 346.389,199.756 527,199.756ZM527,480C552.94,480 574,501.06 574,527C574,552.94 552.94,574 527,574C501.06,574 480,552.94 480,527C480,501.06 501.06,480 527,480Z" style="fill:rgb(0,95,255);fill-opacity:0.25;" serif:id="7&quot;"/><clipPath id="_clip1"><path d="M527,199.756C707.611,199.756 854.244,346.389 854.244,527C854.244,707.611 707.611,854.244 527,854.244C346.389,854.244 199.756,707.611 199.756,527C199.756,346.389 346.389,199.756 527,199.756ZM527,480C552.94,480 574,501.06 574,527C574,552.94 552.94,574 527,574C501.06,574 480,552.94 480,527C480,501.06 501.06,480 527,480Z" id="_7-1" serif:id="7&quot;"/></clipPath><g clip-path="url(#_clip1)"><path style="fill:none;stroke:white;stroke-width:4px;" d="M-0.244,527L1054.24,527"/><path style="fill:none;stroke:white;stroke-width:4px;" d="M527,-0.244L527,527"/></g></svg>