<!DOCTYPE svg PUBLIC "-//W3C//DTD SVG 1.1//EN" "http://www.w3.org/Graphics/SVG/1.1/DTD/svg11.dtd"><svg contentScriptType="application/ecmascript" xmlns:serif="http://www.serif.com/" width="1054px" xmlns:xlink="http://www.w3.org/1999/xlink" zoomAndPan="magnify" style="fill-rule:evenodd;clip-rule:evenodd;stroke-linecap:round;stroke-linejoin:round;stroke-miterlimit:1.5;" contentStyleType="text/css" height="1054px" preserveAspectRatio="xMidYMid meet" xmlns="http://www.w3.org/2000/svg" xml:space="preserve" version="1.1">
    <path id="_8-" d="M527,159.756C729.688,159.756 894.244,324.312 894.244,527C894.244,729.688 729.688,894.244 527,894.244C324.312,894.244 159.756,729.688 159.756,527C159.756,324.312 324.312,159.756 527,159.756ZM527,480C552.94,480 574,501.06 574,527C574,552.94 552.94,574 527,574C501.06,574 480,552.94 480,527C480,501.06 501.06,480 527,480Z" style="fill:rgb(0,95,255);fill-opacity:0.5;" serif:id="8&quot;"/>
    <clipPath id="_clip1">
        <path d="M527,159.756C729.688,159.756 894.244,324.312 894.244,527C894.244,729.688 729.688,894.244 527,894.244C324.312,894.244 159.756,729.688 159.756,527C159.756,324.312 324.312,159.756 527,159.756ZM527,480C552.94,480 574,501.06 574,527C574,552.94 552.94,574 527,574C501.06,574 480,552.94 480,527C480,501.06 501.06,480 527,480Z" id="_8-1" serif:id="8&quot;"/>
    </clipPath>
    <g clip-path="url(#_clip1)">
        <path style="fill:none;stroke:white;stroke-width:4px;" d="M-0.244,527L1054.24,527"/>
        <path style="fill:none;stroke:white;stroke-width:4px;" d="M527,-0.244L527,527"/>
    </g>
</svg>