<!DOCTYPE svg PUBLIC "-//W3C//DTD SVG 1.1//EN" "http://www.w3.org/Graphics/SVG/1.1/DTD/svg11.dtd"><svg contentScriptType="application/ecmascript" xmlns:serif="http://www.serif.com/" width="1054px" xmlns:xlink="http://www.w3.org/1999/xlink" zoomAndPan="magnify" style="fill-rule:evenodd;clip-rule:evenodd;stroke-linecap:round;stroke-linejoin:round;stroke-miterlimit:1.5;" contentStyleType="text/css" height="1054px" preserveAspectRatio="xMidYMid meet" xmlns="http://www.w3.org/2000/svg" xml:space="preserve" version="1.1"><path id="_12-" d="M527,-0.244C817.994,-0.244 1054.24,236.006 1054.24,527C1054.24,817.994 817.994,1054.24 527,1054.24C236.006,1054.24 -0.244,817.994 -0.244,527C-0.244,236.006 236.006,-0.244 527,-0.244ZM527,480C552.94,480 574,501.06 574,527C574,552.94 552.94,574 527,574C501.06,574 480,552.94 480,527C480,501.06 501.06,480 527,480Z" style="fill:rgb(0,95,255);fill-opacity:0.25;" serif:id="12&quot;"/><clipPath id="_clip1"><path d="M527,-0.244C817.994,-0.244 1054.24,236.006 1054.24,527C1054.24,817.994 817.994,1054.24 527,1054.24C236.006,1054.24 -0.244,817.994 -0.244,527C-0.244,236.006 236.006,-0.244 527,-0.244ZM527,480C552.94,480 574,501.06 574,527C574,552.94 552.94,574 527,574C501.06,574 480,552.94 480,527C480,501.06 501.06,480 527,480Z" id="_12-1" serif:id="12&quot;"/></clipPath><g clip-path="url(#_clip1)"><path style="fill:none;stroke:white;stroke-width:4px;" d="M-0.244,527L1054.24,527"/><path style="fill:none;stroke:white;stroke-width:4px;" d="M527,-0.244L527,527"/></g></svg>