<!DOCTYPE svg PUBLIC "-//W3C//DTD SVG 1.1//EN" "http://www.w3.org/Graphics/SVG/1.1/DTD/svg11.dtd"><svg contentScriptType="application/ecmascript" xmlns:serif="http://www.serif.com/" width="94px" xmlns:xlink="http://www.w3.org/1999/xlink" zoomAndPan="magnify" style="fill-rule:evenodd;clip-rule:evenodd;stroke-linejoin:round;stroke-miterlimit:2;" contentStyleType="text/css" height="94px" preserveAspectRatio="xMidYMid meet" xmlns="http://www.w3.org/2000/svg" xml:space="preserve" version="1.1">
    <path style="fill:rgb(62,114,201);" d="M93.955,49C92.903,74.012 72.266,93.994 47,93.994C21.734,93.994 1.097,74.012 0.045,49L7.876,49C8.918,69.688 26.046,86.167 46.992,86.167C67.939,86.167 85.067,69.688 86.109,49L93.955,49Z"/>
    <path style="fill:rgb(167,0,0);" d="M93.955,49C92.903,74.012 72.266,93.994 47,93.994C21.734,93.994 1.097,74.012 0.045,49L7.876,49C8.918,69.688 26.046,86.167 46.992,86.167C67.939,86.167 85.067,69.688 86.109,49L93.955,49Z"/>
</svg>