<!DOCTYPE svg PUBLIC "-//W3C//DTD SVG 1.1//EN" "http://www.w3.org/Graphics/SVG/1.1/DTD/svg11.dtd"><svg contentScriptType="application/ecmascript" xmlns:serif="http://www.serif.com/" width="94px" xmlns:xlink="http://www.w3.org/1999/xlink" zoomAndPan="magnify" style="fill-rule:evenodd;clip-rule:evenodd;stroke-linecap:round;stroke-linejoin:round;stroke-miterlimit:1.5;" contentStyleType="text/css" height="94px" preserveAspectRatio="xMidYMid meet" xmlns="http://www.w3.org/2000/svg" xml:space="preserve" version="1.1">
    <g>
        <g transform="matrix(1.03039,0,0,1.03039,-256.346,-190.626)">
            <circle r="38.011" style="fill:white;fill-opacity:0.5;stroke:black;stroke-width:0.97px;" cx="294.39" cy="230.617"/>
        </g>
        <path d="M47,0.001C72.938,0.001 93.997,21.059 93.997,46.998C93.997,72.936 72.938,93.994 47,93.994C21.062,93.994 0.003,72.936 0.003,46.998C0.003,21.059 21.062,0.001 47,0.001ZM46.992,7.833C68.609,7.833 86.159,25.383 86.159,47C86.159,68.617 68.609,86.167 46.992,86.167C25.376,86.167 7.826,68.617 7.826,47C7.826,25.383 25.376,7.833 46.992,7.833Z"/>
        <clipPath id="_clip1">
            <path d="M47,0.001C72.938,0.001 93.997,21.059 93.997,46.998C93.997,72.936 72.938,93.994 47,93.994C21.062,93.994 0.003,72.936 0.003,46.998C0.003,21.059 21.062,0.001 47,0.001ZM46.992,7.833C68.609,7.833 86.159,25.383 86.159,47C86.159,68.617 68.609,86.167 46.992,86.167C25.376,86.167 7.826,68.617 7.826,47C7.826,25.383 25.376,7.833 46.992,7.833Z"/>
        </clipPath>
        <g clip-path="url(#_clip1)">
            <g transform="matrix(0.994833,0,0,0.994833,-0.0168076,-0.473228)">
                <g transform="matrix(1.00519,0,0,1.00519,0.0168948,0.475686)">
                    <path style="fill:none;stroke:white;stroke-width:4px;stroke-linecap:butt;" d="M46.992,0.001L47,47"/>
                </g>
                <g transform="matrix(1.00519,0,0,1.00519,0.0168948,0.475686)">
                    <path style="fill:none;stroke:white;stroke-width:4px;stroke-linecap:butt;" d="M0.003,46.998L93.997,46.998"/>
                </g>
            </g>
        </g>
    </g>
</svg>