<!DOCTYPE svg PUBLIC "-//W3C//DTD SVG 1.1//EN" "http://www.w3.org/Graphics/SVG/1.1/DTD/svg11.dtd"><svg contentScriptType="application/ecmascript" xmlns:serif="http://www.serif.com/" width="80px" xmlns:xlink="http://www.w3.org/1999/xlink" zoomAndPan="magnify" style="fill-rule:evenodd;clip-rule:evenodd;stroke-linecap:round;stroke-linejoin:round;stroke-miterlimit:1.5;" contentStyleType="text/css" height="120px" preserveAspectRatio="xMidYMid meet" xmlns="http://www.w3.org/2000/svg" xml:space="preserve" version="1.1">
    <g transform="matrix(1.31326e-16,-2.14472,1.36623,8.36574e-17,-893.416,592.989)">
        <path style="fill:url(#_Linear1);stroke:white;stroke-width:1.11px;" d="M270.726,663.758C270.726,662.232 269.937,660.992 268.964,660.992L228.062,660.992C227.089,660.992 226.299,662.232 226.299,663.758L226.299,702.653C226.299,704.18 227.089,705.419 228.062,705.419L268.964,705.419C269.937,705.419 270.726,704.18 270.726,702.653L270.726,663.758Z"/>
    </g>
    <g transform="matrix(1.31326e-16,-2.14472,1.36623,8.36574e-17,-893.416,592.989)">
        <path style="fill:url(#_Linear2);stroke:white;stroke-width:1.11px;" d="M270.726,663.758C270.726,662.232 269.937,660.992 268.964,660.992L228.062,660.992C227.089,660.992 226.299,662.232 226.299,663.758L226.299,702.653C226.299,704.18 227.089,705.419 228.062,705.419L268.964,705.419C269.937,705.419 270.726,704.18 270.726,702.653L270.726,663.758Z"/>
    </g>
    <g transform="matrix(0.5,0,0,0.5,-402.583,-454.862)">
        <path style="fill:url(#_Linear3);" d="M856.409,961.509C856.374,961.464 856.338,961.419 856.303,961.374C854.793,959.426 853.762,957.075 853.567,954.632C853.323,951.562 854.37,948.423 856.239,945.973C856.382,945.786 856.531,945.602 856.688,945.426L856.7,945.412C856.834,945.288 856.956,945.153 857.1,945.041C857.532,944.705 858.052,944.487 858.59,944.413C858.949,944.363 859.314,944.408 859.675,944.453C860.135,944.595 860.267,944.603 860.68,944.862C861.76,945.541 862.342,946.915 862.073,948.165C861.996,948.522 861.858,948.862 861.664,949.171C861.567,949.324 861.445,949.46 861.335,949.605C861.397,949.536 861.085,949.917 860.888,950.225C859.835,951.872 859.428,953.985 860.236,955.871C860.924,957.475 862.255,958.693 863.53,959.971C868.98,965.436 874.681,970.642 879.94,976.271C885.571,982.298 890.729,988.793 895.095,995.776C903.398,1009.06 908.811,1024.04 912.05,1039.35C912.27,1040.39 912.481,1041.43 912.62,1042.48C913.436,1048.66 912.345,1054.98 910.569,1060.98C907.885,1070.05 903.603,1078.55 899.386,1087.08C897.818,1090.26 896.204,1093.44 894.96,1096.75C894.063,1099.13 893.325,1101.68 893.817,1104.26C893.993,1105.17 894.426,1106.09 895.202,1106.64C895.654,1106.97 896.178,1107.18 896.709,1107.33L897.218,1107.53C897.53,1107.72 897.845,1107.9 898.097,1108.16C899.11,1109.21 899.243,1110.99 898.384,1112.17C897.743,1113.06 896.62,1113.56 895.531,1113.45C894.843,1113.38 894.201,1113.11 893.566,1112.84C890.913,1111.72 888.816,1109.46 887.96,1106.59C887.779,1105.98 887.649,1105.37 887.562,1104.74L846.764,1067.13L850.625,1066.24C851.667,1065.93 852.635,1064.74 852.635,1064.74L852.894,1064.28L888.31,1096.93C888.358,1096.76 888.408,1096.6 888.458,1096.43C889.803,1092.08 891.963,1088 893.992,1083.89C898.28,1075.21 902.705,1066.55 905.148,1057.15C906.46,1052.11 907.177,1046.78 906.171,1041.78C903.055,1026.48 897.529,1011.1 889.047,997.909C883.886,989.882 877.599,982.625 870.858,975.874C867.853,972.865 864.765,969.949 861.72,966.973L846.743,1044.5C846.359,1044.45 846.025,1044.51 845.602,1044.58L840.117,1045.85L856.409,961.509ZM902.577,1039.9C902.684,1040.38 902.788,1040.86 902.89,1041.34C903.176,1042.71 903.35,1044.08 903.427,1045.45L853.416,1057.05L849.919,1063.19L834.351,1066.81L837.848,1060.66L836.584,1055.21L830.74,1051.24L846.308,1047.63L852.152,1051.6L902.577,1039.9ZM914.756,1037.08L919.345,1036.02L920.352,1030.45L940.217,1034.05L923.963,1046.02L920.609,1041.46L915.701,1042.6C915.577,1041.3 915.382,1040 915.107,1038.7C914.993,1038.16 914.876,1037.62 914.756,1037.08Z"/>
    </g>
    <defs>
        <linearGradient xmlns:xlink="http://www.w3.org/1999/xlink" gradientTransform="matrix(44.4272,0,0,69.7421,226.299,683.206)" x1="0" x2="1" gradientUnits="userSpaceOnUse" y1="0" xlink:type="simple" y2="0" xlink:actuate="onLoad" id="_Linear1" xlink:show="other"><stop style="stop-color:rgb(1,0,255);stop-opacity:1" offset="0"/><stop style="stop-color:rgb(0,0,153);stop-opacity:1" offset="1"/></linearGradient>
        <linearGradient xmlns:xlink="http://www.w3.org/1999/xlink" gradientTransform="matrix(44.4272,0,0,69.7421,226.299,683.206)" x1="0" x2="1" gradientUnits="userSpaceOnUse" y1="0" xlink:type="simple" y2="0" xlink:actuate="onLoad" id="_Linear2" xlink:show="other"><stop style="stop-color:rgb(255,203,0);stop-opacity:1" offset="0"/><stop style="stop-color:rgb(153,125,0);stop-opacity:1" offset="1"/></linearGradient>
        <linearGradient xmlns:xlink="http://www.w3.org/1999/xlink" gradientTransform="matrix(1.16689e-14,190.567,-190.567,1.16689e-14,888.564,934.44)" x1="0" x2="1" gradientUnits="userSpaceOnUse" y1="0" xlink:type="simple" y2="0" xlink:actuate="onLoad" id="_Linear3" xlink:show="other"><stop style="stop-color:black;stop-opacity:1" offset="0"/><stop style="stop-color:rgb(149,149,149);stop-opacity:1" offset="0.46"/><stop style="stop-color:black;stop-opacity:1" offset="1"/></linearGradient>
    </defs>
</svg>