<!DOCTYPE svg PUBLIC "-//W3C//DTD SVG 1.1//EN" "http://www.w3.org/Graphics/SVG/1.1/DTD/svg11.dtd"><svg contentScriptType="application/ecmascript" xmlns:serif="http://www.serif.com/" width="80px" xmlns:xlink="http://www.w3.org/1999/xlink" zoomAndPan="magnify" style="fill-rule:evenodd;clip-rule:evenodd;stroke-linecap:round;stroke-linejoin:round;stroke-miterlimit:1.5;" contentStyleType="text/css" height="120px" preserveAspectRatio="xMidYMid meet" xmlns="http://www.w3.org/2000/svg" xml:space="preserve" version="1.1">
    <g transform="matrix(1.31326e-16,-2.14472,1.36623,8.36574e-17,-893.416,592.989)">
        <path style="fill:url(#_Linear1);stroke:white;stroke-width:1.11px;" d="M270.726,663.758C270.726,662.232 269.937,660.992 268.964,660.992L228.062,660.992C227.089,660.992 226.299,662.232 226.299,663.758L226.299,702.653C226.299,704.18 227.089,705.419 228.062,705.419L268.964,705.419C269.937,705.419 270.726,704.18 270.726,702.653L270.726,663.758Z"/>
    </g>
    <g>
        <g transform="matrix(1.85559,-2.1143,2.1143,1.85559,-1860.42,-725.681)">
            <path style="fill:url(#_Linear2);" d="M236.27,681.396C237.403,680.847 242.401,680.751 242.434,683.572C242.475,687.04 238.006,685.724 235.82,687.67C234.436,688.902 234.788,690.653 233.808,691.773C231.588,694.31 227.933,690.768 230.427,688.522C231.277,687.757 232.375,686.959 232.858,685.983C233.965,683.749 235.257,681.886 236.27,681.396ZM244.641,681.112C245.023,681.424 244.972,682.121 244.526,682.667C244.08,683.213 243.408,683.403 243.026,683.09C242.643,682.778 242.695,682.082 243.141,681.536C243.587,680.99 244.259,680.8 244.641,681.112ZM242.982,679.914C243.297,680.171 243.255,680.747 242.887,681.197C242.519,681.648 241.964,681.805 241.648,681.547C241.332,681.289 241.375,680.714 241.743,680.263C242.111,679.813 242.666,679.656 242.982,679.914ZM241.238,679.308C241.521,679.54 241.483,680.056 241.153,680.461C240.822,680.865 240.324,681.006 240.041,680.774C239.757,680.543 239.796,680.027 240.126,679.622C240.456,679.218 240.955,679.077 241.238,679.308ZM237.652,679.397C237.901,679.601 237.868,680.055 237.577,680.411C237.287,680.767 236.848,680.89 236.599,680.687C236.35,680.483 236.384,680.029 236.674,679.673C236.965,679.318 237.403,679.194 237.652,679.397ZM239.486,679.104C239.758,679.327 239.721,679.823 239.404,680.213C239.086,680.602 238.606,680.737 238.334,680.515C238.061,680.292 238.098,679.795 238.416,679.406C238.734,679.017 239.213,678.882 239.486,679.104Z"/>
        </g>
        <g transform="matrix(-2.04208,-1.93478,-1.93478,2.04208,1862.76,-867.52)">
            <path style="fill:url(#_Linear3);" d="M236.27,681.396C237.403,680.847 242.401,680.751 242.434,683.572C242.475,687.04 238.006,685.724 235.82,687.67C234.436,688.902 234.788,690.653 233.808,691.773C231.588,694.31 227.933,690.768 230.427,688.522C231.277,687.757 232.375,686.959 232.858,685.983C233.965,683.749 235.257,681.886 236.27,681.396ZM244.641,681.112C245.023,681.424 244.972,682.121 244.526,682.667C244.08,683.213 243.408,683.403 243.026,683.09C242.643,682.778 242.695,682.082 243.141,681.536C243.587,680.99 244.259,680.8 244.641,681.112ZM242.982,679.914C243.297,680.171 243.255,680.747 242.887,681.197C242.519,681.648 241.964,681.805 241.648,681.547C241.332,681.289 241.375,680.714 241.743,680.263C242.111,679.813 242.666,679.656 242.982,679.914ZM241.238,679.308C241.521,679.54 241.483,680.056 241.153,680.461C240.822,680.865 240.324,681.006 240.041,680.774C239.757,680.543 239.796,680.027 240.126,679.622C240.456,679.218 240.955,679.077 241.238,679.308ZM237.652,679.397C237.901,679.601 237.868,680.055 237.577,680.411C237.287,680.767 236.848,680.89 236.599,680.687C236.35,680.483 236.384,680.029 236.674,679.673C236.965,679.318 237.403,679.194 237.652,679.397ZM239.486,679.104C239.758,679.327 239.721,679.823 239.404,680.213C239.086,680.602 238.606,680.737 238.334,680.515C238.061,680.292 238.098,679.795 238.416,679.406C238.734,679.017 239.213,678.882 239.486,679.104Z"/>
        </g>
    </g>
    <defs>
        <linearGradient xmlns:xlink="http://www.w3.org/1999/xlink" gradientTransform="matrix(44.4272,0,0,69.7421,226.299,683.206)" x1="0" x2="1" gradientUnits="userSpaceOnUse" y1="0" xlink:type="simple" y2="0" xlink:actuate="onLoad" id="_Linear1" xlink:show="other"><stop style="stop-color:rgb(1,0,255);stop-opacity:1" offset="0"/><stop style="stop-color:rgb(0,0,153);stop-opacity:1" offset="1"/></linearGradient>
        <linearGradient xmlns:xlink="http://www.w3.org/1999/xlink" gradientTransform="matrix(22.9834,-20.1712,20.1712,22.9834,224.378,701.92)" x1="0" x2="1" gradientUnits="userSpaceOnUse" y1="0" xlink:type="simple" y2="0" xlink:actuate="onLoad" id="_Linear2" xlink:show="other"><stop style="stop-color:rgb(123,123,123);stop-opacity:1" offset="0"/><stop style="stop-color:white;stop-opacity:1" offset="1"/></linearGradient>
        <linearGradient xmlns:xlink="http://www.w3.org/1999/xlink" gradientTransform="matrix(21.032,-22.1984,-22.1984,-21.032,233.229,695.938)" x1="0" x2="1" gradientUnits="userSpaceOnUse" y1="0" xlink:type="simple" y2="0" xlink:actuate="onLoad" id="_Linear3" xlink:show="other"><stop style="stop-color:rgb(123,123,123);stop-opacity:1" offset="0"/><stop style="stop-color:white;stop-opacity:1" offset="1"/></linearGradient>
    </defs>
</svg>