<!DOCTYPE svg PUBLIC "-//W3C//DTD SVG 1.1//EN" "http://www.w3.org/Graphics/SVG/1.1/DTD/svg11.dtd"><svg contentScriptType="application/ecmascript" xmlns:serif="http://www.serif.com/" width="80px" xmlns:xlink="http://www.w3.org/1999/xlink" zoomAndPan="magnify" style="fill-rule:evenodd;clip-rule:evenodd;stroke-linejoin:round;stroke-miterlimit:2;" contentStyleType="text/css" height="80px" preserveAspectRatio="xMidYMid meet" xmlns="http://www.w3.org/2000/svg" xml:space="preserve" version="1.1"><path style="fill:white;fill-rule:nonzero;" d="M49.054,58.353C49.054,60.174 48.135,61.752 46.296,63.088C44.614,64.302 42.819,64.909 40.911,64.909C39.957,64.909 38.951,64.788 37.893,64.545C39.419,64.025 40.729,63.235 41.821,62.177C43.07,60.946 43.695,59.602 43.695,58.145C43.695,56.757 43.157,55.526 42.082,54.451C41.093,53.479 39.888,52.838 38.465,52.525C41.57,51.936 43.122,50.444 43.122,48.051C43.122,47.079 42.836,46.403 42.264,46.021C41.795,45.692 41.05,45.527 40.026,45.527C38.986,45.527 37.988,45.883 37.034,46.594C36.167,47.235 35.482,48.042 34.979,49.013L32.846,45.917C35.014,44.009 37.442,43.055 40.13,43.055C41.726,43.055 43.322,43.463 44.917,44.278C46.825,45.232 47.779,46.429 47.779,47.868C47.779,48.892 47.493,49.872 46.921,50.808C46.348,51.745 45.602,52.447 44.683,52.916C47.597,54.147 49.054,55.96 49.054,58.353ZM38.283,63.192L35.76,64.545C35.014,64.545 34.129,64.172 33.106,63.426C32.308,62.871 31.58,62.212 30.921,61.449L33.626,57.364C33.748,58.578 34.277,59.741 35.213,60.851C36.063,61.857 37.086,62.637 38.283,63.192Z"/></svg>