<!DOCTYPE svg PUBLIC "-//W3C//DTD SVG 1.1//EN" "http://www.w3.org/Graphics/SVG/1.1/DTD/svg11.dtd"><svg contentScriptType="application/ecmascript" xmlns:serif="http://www.serif.com/" width="80px" xmlns:xlink="http://www.w3.org/1999/xlink" zoomAndPan="magnify" style="fill-rule:evenodd;clip-rule:evenodd;stroke-linecap:round;stroke-linejoin:round;stroke-miterlimit:1.5;" contentStyleType="text/css" height="80px" preserveAspectRatio="xMidYMid meet" xmlns="http://www.w3.org/2000/svg" xml:space="preserve" version="1.1">
    <g transform="matrix(-0.951194,-1.16488e-16,1.16488e-16,-0.951194,236.632,707.618)">
        <path style="stroke:white;stroke-width:2.1px;" d="M203.977,663.452C204.543,662.471 205.589,661.867 206.722,661.867C207.854,661.867 208.901,662.471 209.467,663.452C216.126,674.986 233.079,704.349 239.738,715.883C240.304,716.863 240.304,718.072 239.738,719.053C239.171,720.033 238.125,720.637 236.993,720.637L176.451,720.637C175.318,720.637 174.272,720.033 173.706,719.053C173.14,718.072 173.14,716.863 173.706,715.883C180.365,704.349 197.317,674.986 203.977,663.452Z"/>
    </g>
    <g transform="matrix(0.937172,-0.348868,0.348868,0.937172,-614.313,-411.546)">
        <g transform="matrix(1.21002,-1.85046e-16,1.85046e-16,1.21002,-166.291,-165.382)">
            <g transform="matrix(-0.694832,0.050584,-0.050584,-0.694832,679.875,1143.47)">
                <path style="fill:rgb(255,193,186);" d="M190.655,686.463C192.776,687.13 195.071,687.078 197.177,686.294C202.381,684.357 205.03,678.568 203.092,673.363L206.233,672.194C208.816,679.133 205.285,686.852 198.346,689.435C195.407,690.529 192.19,690.554 189.253,689.529L187.652,693.029L184.853,685.802L192.15,683.195L190.655,686.463Z"/>
            </g>
            <g transform="matrix(-0.694832,0.050584,-0.050584,-0.694832,679.875,1143.47)">
                <path style="fill:rgb(255,193,186);" d="M198.086,664.213L199.687,660.714L202.486,667.94L195.188,670.548L196.683,667.279C194.562,666.612 192.267,666.664 190.161,667.448C184.957,669.385 182.309,675.175 184.246,680.379L181.105,681.548C178.522,674.609 182.053,666.89 188.992,664.307C191.932,663.213 195.149,663.188 198.086,664.213Z"/>
            </g>
        </g>
        <g transform="matrix(1.13397,0.422128,-0.282658,0.759309,417.733,43.9292)">
            <path style="fill:rgb(255,75,80);" d="M193.703,677.538L191.774,680.658L185.346,680.658L187.275,677.538L187.275,674.178L185.346,671.058L191.774,671.058L193.703,674.178L215.389,674.178L216.29,671.058L223.746,675.858L216.29,680.658L215.389,677.538L193.703,677.538Z"/>
        </g>
    </g>
</svg>