<!DOCTYPE svg PUBLIC "-//W3C//DTD SVG 1.1//EN" "http://www.w3.org/Graphics/SVG/1.1/DTD/svg11.dtd"><svg contentScriptType="application/ecmascript" xmlns:serif="http://www.serif.com/" width="35px" xmlns:xlink="http://www.w3.org/1999/xlink" zoomAndPan="magnify" style="fill-rule:evenodd;clip-rule:evenodd;stroke-linecap:round;stroke-linejoin:round;stroke-miterlimit:1.5;" contentStyleType="text/css" height="30px" preserveAspectRatio="xMidYMid meet" xmlns="http://www.w3.org/2000/svg" xml:space="preserve" version="1.1"><g><path style="stroke:white;stroke-width:0.83px;" d="M14.907,4.186C15.356,3.408 16.186,2.929 17.083,2.929C17.981,2.929 18.81,3.408 19.259,4.186C22.454,9.719 28.379,19.982 31.574,25.515C32.023,26.293 32.023,27.25 31.574,28.028C31.125,28.805 30.296,29.284 29.398,29.284L4.769,29.284C3.871,29.284 3.041,28.805 2.593,28.028C2.144,27.25 2.144,26.293 2.593,25.515C5.787,19.982 11.713,9.719 14.907,4.186Z"/><path style="fill:rgb(255,62,0);" d="M17.558,7.978C17.624,10.048 17.81,13.008 18.124,14.32C18.844,12.77 19.179,10.114 18.435,9.301C18.435,9.301 20.127,10.158 20.537,12.048C20.745,13.006 20.829,15.435 20.965,14.906C21.588,14.15 22.102,12.263 21.628,11.439C21.479,11.206 22.117,11.86 22.612,12.625C24.701,15.849 22.822,20.301 22.857,20.895C22.92,21.953 25.079,19.917 25.339,18.489C25.339,18.489 25.755,20.072 25.676,20.927C25.442,23.459 24.252,25.582 21.764,26.831C18.238,28.6 13.554,27.875 11.011,25.017C8.316,21.988 8.649,17.364 10.774,14.544C10.864,14.426 10.975,14.304 11.079,14.197L11.343,13.942C10.817,14.613 11.833,19.014 12.315,18.553C12.551,18.327 12.113,16.665 12.309,14.662C12.506,12.65 13.338,10.295 14.369,8.937C14.369,8.937 14.475,13.392 14.673,12.451C15.148,10.268 15.994,8.634 17.531,6.299L17.558,7.978ZM20.805,22.752C20.805,23.483 20.436,24.117 19.697,24.654C19.021,25.142 18.3,25.386 17.533,25.386C17.15,25.386 16.746,25.337 16.321,25.239C16.934,25.03 17.46,24.713 17.899,24.288C18.401,23.793 18.652,23.253 18.652,22.668C18.652,22.111 18.436,21.616 18.004,21.184C17.606,20.793 17.122,20.536 16.551,20.41C17.798,20.173 18.422,19.574 18.422,18.612C18.422,18.222 18.307,17.95 18.077,17.797C17.889,17.665 17.589,17.598 17.178,17.598C16.76,17.598 16.359,17.741 15.976,18.027C15.627,18.285 15.352,18.609 15.15,18.999L14.293,17.755C15.164,16.989 16.14,16.605 17.22,16.605C17.861,16.605 18.502,16.769 19.143,17.097C19.91,17.48 20.293,17.961 20.293,18.539C20.293,18.95 20.178,19.344 19.948,19.72C19.718,20.097 19.418,20.379 19.049,20.567C20.22,21.062 20.805,21.79 20.805,22.752ZM16.478,24.696L15.464,25.239C15.164,25.239 14.809,25.09 14.397,24.79C14.077,24.567 13.784,24.302 13.519,23.995L14.607,22.354C14.655,22.842 14.868,23.309 15.244,23.755C15.586,24.159 15.997,24.473 16.478,24.696Z"/></g></svg>