<!DOCTYPE svg PUBLIC "-//W3C//DTD SVG 1.1//EN" "http://www.w3.org/Graphics/SVG/1.1/DTD/svg11.dtd"><svg contentScriptType="application/ecmascript" xmlns:serif="http://www.serif.com/" width="80px" xmlns:xlink="http://www.w3.org/1999/xlink" zoomAndPan="magnify" style="fill-rule:evenodd;clip-rule:evenodd;stroke-linecap:round;stroke-linejoin:round;stroke-miterlimit:1.5;" contentStyleType="text/css" height="80px" preserveAspectRatio="xMidYMid meet" xmlns="http://www.w3.org/2000/svg" xml:space="preserve" version="1.1">
    <g transform="matrix(-0.951194,-1.16488e-16,1.16488e-16,-0.951194,236.632,707.618)">
        <path style="stroke:white;stroke-width:2.1px;" d="M203.977,663.452C204.543,662.471 205.589,661.867 206.722,661.867C207.854,661.867 208.901,662.471 209.467,663.452C216.126,674.986 233.079,704.349 239.738,715.883C240.304,716.863 240.304,718.072 239.738,719.053C239.171,720.033 238.125,720.637 236.993,720.637L176.451,720.637C175.318,720.637 174.272,720.033 173.706,719.053C173.14,718.072 173.14,716.863 173.706,715.883C180.365,704.349 197.317,674.986 203.977,663.452Z"/>
    </g>
    <path style="fill:rgb(255,241,0);" d="M44.517,26.663C48.082,27.165 51.378,29.077 53.513,31.978C55.977,35.324 55.956,39.591 55.151,43.299C53.792,49.56 51.309,55.361 48.163,60.819C48.162,60.821 48.161,60.823 48.16,60.824C48.012,61.077 48.004,61.102 47.857,61.333C47.849,61.345 47.841,61.358 47.832,61.37C46.539,63.19 44.194,63.646 42.247,63.969C42.246,63.969 42.245,63.969 42.244,63.969C41.355,64.115 39.679,64.115 38.789,63.969C36.842,63.646 34.498,63.192 33.204,61.373C33.195,61.36 33.187,61.346 33.179,61.333C33.032,61.102 33.024,61.077 32.876,60.825C32.874,60.823 32.872,60.821 32.871,60.819C29.725,55.361 27.244,49.56 25.886,43.299C25.08,39.591 25.059,35.324 27.523,31.978C29.963,28.662 33.92,26.639 38.061,26.535L42.976,26.535L44.517,26.663ZM40.034,47.585C38.683,47.585 37.535,48.295 36.826,49.328C36.118,50.36 35.78,51.694 35.78,53.126C35.78,54.61 36.348,55.78 37.275,56.446C38.201,57.111 39.351,57.292 40.519,57.292C41.687,57.292 42.835,57.111 43.761,56.446C44.688,55.78 45.254,54.61 45.254,53.126C45.254,51.694 44.918,50.36 44.21,49.328C43.501,48.295 42.353,47.585 41.002,47.585L40.034,47.585ZM47.01,36.506C48.331,36.69 49.364,37.776 49.806,39C50.249,40.223 50.23,41.437 50.044,42.378C50.043,42.378 50.042,42.379 50.041,42.379C49.85,43.339 49.574,44.286 48.97,44.944C48.366,45.602 47.464,45.891 46.238,45.721C45.016,45.55 44.027,45.037 43.285,44.233C42.543,43.428 42.098,42.341 41.972,41.32C41.875,40.544 42.077,39.967 42.352,39.415C42.628,38.863 43.016,38.346 43.483,37.895C44.416,36.993 45.653,36.319 47.008,36.507L47.01,36.506ZM34.025,36.506C32.705,36.69 31.671,37.776 31.229,39C30.787,40.223 30.805,41.437 30.992,42.378C30.993,42.378 30.993,42.379 30.994,42.379C31.185,43.339 31.461,44.286 32.065,44.944C32.669,45.602 33.572,45.891 34.798,45.721C36.02,45.55 37.009,45.037 37.751,44.233C38.493,43.428 38.937,42.341 39.064,41.32C39.16,40.544 38.958,39.967 38.683,39.415C38.408,38.863 38.019,38.346 37.553,37.895C36.619,36.993 35.382,36.319 34.028,36.507L34.025,36.506Z"/>
</svg>