<!DOCTYPE svg PUBLIC "-//W3C//DTD SVG 1.1//EN" "http://www.w3.org/Graphics/SVG/1.1/DTD/svg11.dtd"><svg contentScriptType="application/ecmascript" xmlns:serif="http://www.serif.com/" width="80px" xmlns:xlink="http://www.w3.org/1999/xlink" zoomAndPan="magnify" style="fill-rule:evenodd;clip-rule:evenodd;stroke-linecap:round;stroke-linejoin:round;stroke-miterlimit:1.5;" contentStyleType="text/css" height="80px" preserveAspectRatio="xMidYMid meet" xmlns="http://www.w3.org/2000/svg" xml:space="preserve" version="1.1">
    <g transform="matrix(-0.951194,-1.16488e-16,1.16488e-16,-0.951194,236.632,707.618)">
        <path style="stroke:white;stroke-width:2.1px;" d="M203.977,663.452C204.543,662.471 205.589,661.867 206.722,661.867C207.854,661.867 208.901,662.471 209.467,663.452C216.126,674.986 233.079,704.349 239.738,715.883C240.304,716.863 240.304,718.072 239.738,719.053C239.171,720.033 238.125,720.637 236.993,720.637L176.451,720.637C175.318,720.637 174.272,720.033 173.706,719.053C173.14,718.072 173.14,716.863 173.706,715.883C180.365,704.349 197.317,674.986 203.977,663.452Z"/>
    </g>
    <g>
        <g>
            <g transform="matrix(1,0,0,1,-443.622,-424.561)">
                <path style="fill:rgb(255,191,0);" d="M483.622,489.387L485.319,484.164L490.811,484.164L486.368,480.936L488.065,475.713L483.622,478.941L479.179,475.713L480.876,480.936L476.433,484.164L481.925,484.164L483.622,489.387Z"/>
            </g>
            <g transform="matrix(1,0,0,1,-443.622,-424.561)">
                <path style="fill:rgb(255,191,0);" d="M476.18,471.212L473.884,473.763L475.6,476.736L472.464,475.34L470.167,477.891L470.526,474.477L467.39,473.081L470.748,472.367L471.107,468.954L472.823,471.926L476.18,471.212Z"/>
            </g>
            <g transform="matrix(1,0,0,1,-443.622,-424.561)">
                <path style="fill:rgb(255,191,0);" d="M491.063,471.212L494.42,471.926L496.137,468.954L496.495,472.367L499.853,473.081L496.717,474.477L497.076,477.891L494.779,475.34L491.643,476.736L493.36,473.763L491.063,471.212Z"/>
            </g>
            <g transform="matrix(1,0,0,1,-443.622,-424.561)">
                <path style="fill:rgb(255,191,0);" d="M464.161,455.681L469.533,456.823L472.279,452.066L472.853,457.528L478.225,458.67L473.208,460.904L473.782,466.366L470.107,462.284L465.09,464.518L467.836,459.762L464.161,455.681Z"/>
            </g>
            <g transform="matrix(1,0,0,1,-443.622,-424.561)">
                <path style="fill:rgb(255,191,0);" d="M503.082,455.681L497.71,456.823L494.964,452.066L494.39,457.528L489.018,458.67L494.035,460.904L493.461,466.366L497.136,462.284L502.153,464.518L499.407,459.762L503.082,455.681Z"/>
            </g>
            <g transform="matrix(1,0,0,1,-443.622,-424.561)">
                <path style="fill:rgb(255,191,0);" d="M483.622,458.324L484.682,455.059L488.115,455.059L485.338,453.042L486.399,449.777L483.622,451.795L480.845,449.777L481.905,453.042L479.128,455.059L482.561,455.059L483.622,458.324Z"/>
            </g>
        </g>
        <g>
            <g transform="matrix(1,0,0,1,-443.622,-424.561)">
                <path style="fill:rgb(255,255,135);" d="M494.654,476.492C492.937,478.474 490.672,479.975 488.178,480.812L487.543,480.351L488.078,478.704C488.912,478.376 489.713,477.96 490.464,477.465L490.906,477.956L494.522,476.346L494.654,476.492Z"/>
            </g>
            <g transform="matrix(1,0,0,1,-443.622,-424.561)">
                <path style="fill:rgb(255,255,135);" d="M472.613,476.466L472.721,476.346L476.337,477.956L476.763,477.483C477.519,477.977 478.327,478.392 479.169,478.718L479.7,480.351L479.083,480.8C476.607,479.958 474.346,478.455 472.613,476.466Z"/>
            </g>
            <g transform="matrix(1,0,0,1,-443.622,-424.561)">
                <path style="fill:rgb(255,255,135);" d="M497.703,463.428C498.36,466.023 498.272,468.792 497.486,471.353L497.414,471.337L497,467.401L496.138,467.217C496.143,466.443 496.076,465.668 495.94,464.904L497.393,463.291L497.703,463.428Z"/>
            </g>
            <g transform="matrix(1,0,0,1,-443.622,-424.561)">
                <path style="fill:rgb(255,255,135);" d="M471.311,464.913C471.187,465.671 471.131,466.44 471.143,467.209L470.243,467.401L469.829,471.337L469.768,471.35C468.988,468.788 468.938,466.011 469.602,463.401L469.85,463.291L471.311,464.913Z"/>
            </g>
            <g transform="matrix(1,0,0,1,-443.622,-424.561)">
                <path style="fill:rgb(255,255,135);" d="M478.083,455.856C477.423,456.187 476.789,456.574 476.193,457.013L473.772,456.498L473.762,456.404C475.518,454.795 477.673,453.62 479.977,453.004L477.528,454.783L477.876,455.856L478.083,455.856Z"/>
            </g>
            <g transform="matrix(1,0,0,1,-443.622,-424.561)">
                <path style="fill:rgb(255,255,135);" d="M487.271,453.007C489.565,453.628 491.711,454.813 493.478,456.432L493.472,456.498L491.113,457C490.529,456.565 489.906,456.183 489.255,455.856L489.367,455.856L489.716,454.783L487.271,453.007Z"/>
            </g>
        </g>
    </g>
</svg>