<!DOCTYPE svg PUBLIC "-//W3C//DTD SVG 1.1//EN" "http://www.w3.org/Graphics/SVG/1.1/DTD/svg11.dtd"><svg contentScriptType="application/ecmascript" xmlns:serif="http://www.serif.com/" width="80px" xmlns:xlink="http://www.w3.org/1999/xlink" zoomAndPan="magnify" style="fill-rule:evenodd;clip-rule:evenodd;stroke-linejoin:round;stroke-miterlimit:2;" contentStyleType="text/css" height="80px" preserveAspectRatio="xMidYMid meet" xmlns="http://www.w3.org/2000/svg" xml:space="preserve" version="1.1"><path style="fill:white;fill-rule:nonzero;" d="M42.719,45.163C41.175,45.544 39.727,46.186 38.374,47.088C36.848,48.094 35.764,49.23 35.122,50.496L33.041,46.099C35.001,44.244 37.143,43.324 39.467,43.342L39.935,43.342L42.719,45.163ZM48.078,48.909C48.078,50.921 46.864,52.768 44.436,54.451C42.199,55.821 39.97,57.191 37.75,58.561C35.356,60.278 34.194,62.186 34.264,64.285L32.729,65.117C32.573,64.267 32.495,63.391 32.495,62.49C32.495,59.819 33.535,57.486 35.617,55.491C37.559,54.052 39.502,52.612 41.444,51.173C43.526,49.612 44.566,48.033 44.566,46.438C44.566,44.981 43.734,43.923 42.069,43.264C43.421,43.316 44.748,43.923 46.049,45.085C47.402,46.316 48.078,47.591 48.078,48.909ZM48.521,61.657L45.737,65.429C44.28,64.319 42.077,63.764 39.129,63.764C37.741,63.764 36.501,63.86 35.408,64.051L36.293,61.709C37.993,60.72 39.901,60.226 42.017,60.226C44.445,60.226 46.613,60.703 48.521,61.657Z"/></svg>