<!DOCTYPE svg PUBLIC "-//W3C//DTD SVG 1.1//EN" "http://www.w3.org/Graphics/SVG/1.1/DTD/svg11.dtd"><svg contentScriptType="application/ecmascript" xmlns:serif="http://www.serif.com/" width="80px" xmlns:xlink="http://www.w3.org/1999/xlink" zoomAndPan="magnify" style="fill-rule:evenodd;clip-rule:evenodd;stroke-linecap:round;stroke-linejoin:round;stroke-miterlimit:1.5;" contentStyleType="text/css" height="80px" preserveAspectRatio="xMidYMid meet" xmlns="http://www.w3.org/2000/svg" xml:space="preserve" version="1.1"><path style="stroke:white;stroke-width:1.95px;" d="M37.389,10.727C37.927,9.794 38.923,9.219 40,9.219C41.077,9.219 42.073,9.794 42.611,10.727C49.712,23.025 69.313,56.975 76.413,69.273C76.952,70.206 76.952,71.356 76.413,72.289C75.875,73.221 74.879,73.796 73.802,73.796L6.198,73.796C5.121,73.796 4.125,73.221 3.587,72.289C3.048,71.356 3.048,70.206 3.587,69.273C10.687,56.975 30.288,23.025 37.389,10.727Z"/><path style="fill:rgb(82,164,0);" d="M40.841,25.314C41.401,25.318 41.961,25.328 42.52,25.348C42.975,25.365 43.43,25.388 43.884,25.419C44.232,25.443 44.58,25.472 44.928,25.508C45.181,25.534 45.433,25.564 45.685,25.6C47.063,25.795 48.907,26.085 48.999,28.027C49.033,30.227 49.144,32.074 45.847,32.892C45.847,32.892 45.569,34.921 45.675,34.961C49.757,36.488 49.744,35.609 52.677,37.257C53.516,37.728 54.32,38.468 54.407,39.488C54.64,47.669 54.41,55.856 54.41,64.039C54.355,67.426 50.075,69.115 47.393,69.656C38.805,71.387 26.992,70.893 26.661,64.166C26.528,55.973 26.659,47.779 26.659,39.586C26.741,36.795 30.352,36.356 32.59,35.75C34.348,35.274 35.873,36.221 35.334,33.023C35.334,33.023 32.166,32.307 32.07,30.362C32.044,28.874 31.778,27.325 32.913,26.433C35.014,24.782 38.026,25.305 40.841,25.314Z"/></svg>