<!DOCTYPE svg PUBLIC "-//W3C//DTD SVG 1.1//EN" "http://www.w3.org/Graphics/SVG/1.1/DTD/svg11.dtd"><svg contentScriptType="application/ecmascript" xmlns:serif="http://www.serif.com/" width="80px" xmlns:xlink="http://www.w3.org/1999/xlink" zoomAndPan="magnify" style="fill-rule:evenodd;clip-rule:evenodd;stroke-linecap:round;stroke-linejoin:round;stroke-miterlimit:1.5;" contentStyleType="text/css" height="80px" preserveAspectRatio="xMidYMid meet" xmlns="http://www.w3.org/2000/svg" xml:space="preserve" version="1.1">
    <g transform="matrix(1.09125,2.6728e-16,-2.6728e-16,1.09125,-185.586,-719.874)">
        <path style="stroke:white;stroke-width:1.79px;" d="M204.329,662.842C204.822,661.987 205.735,661.46 206.722,661.46C207.709,661.46 208.621,661.987 209.115,662.842C215.621,674.112 233.583,705.223 240.09,716.493C240.584,717.348 240.584,718.401 240.09,719.256C239.596,720.111 238.684,720.637 237.697,720.637L175.746,720.637C174.759,720.637 173.847,720.111 173.353,719.256C172.86,718.401 172.86,717.348 173.353,716.493C179.86,705.223 197.822,674.112 204.329,662.842Z"/>
    </g>
    <g transform="matrix(0.367118,0,0,0.367118,-34.2553,-358.474)">
        <path style="fill:rgb(82,164,0);" d="M204.555,1025.6C206.081,1025.61 207.606,1025.63 209.131,1025.69C210.369,1025.73 211.608,1025.8 212.844,1025.88C213.793,1025.95 214.742,1026.03 215.688,1026.12C216.377,1026.19 217.065,1026.28 217.751,1026.37C221.503,1026.9 226.526,1027.7 226.779,1032.99C226.871,1038.98 227.174,1044.01 218.192,1046.24C218.192,1046.24 217.435,1051.76 217.723,1051.87C228.844,1056.03 228.808,1053.64 236.798,1058.13C239.082,1059.41 241.271,1061.43 241.51,1064.2C242.144,1086.49 241.517,1108.79 241.517,1131.08C241.367,1140.3 229.708,1144.9 222.402,1146.38C199.012,1151.1 166.832,1149.75 165.932,1131.42C165.568,1109.11 165.926,1086.79 165.926,1064.47C166.148,1056.87 175.984,1055.67 182.08,1054.02C186.869,1052.73 191.023,1055.31 189.555,1046.6C189.555,1046.6 180.926,1044.64 180.665,1039.35C180.593,1035.29 179.87,1031.07 182.961,1028.64C188.685,1024.14 196.889,1025.57 204.555,1025.6Z"/>
    </g>
</svg>