<!DOCTYPE svg PUBLIC "-//W3C//DTD SVG 1.1//EN" "http://www.w3.org/Graphics/SVG/1.1/DTD/svg11.dtd"><svg contentScriptType="application/ecmascript" xmlns:serif="http://www.serif.com/" width="40px" xmlns:xlink="http://www.w3.org/1999/xlink" zoomAndPan="magnify" style="fill-rule:evenodd;clip-rule:evenodd;stroke-linecap:round;stroke-linejoin:round;stroke-miterlimit:1.5;" contentStyleType="text/css" height="40px" preserveAspectRatio="xMidYMid meet" xmlns="http://www.w3.org/2000/svg" xml:space="preserve" version="1.1"><g><circle r="19" style="fill:rgb(86,69,10);stroke:rgb(138,176,46);stroke-width:2px;" cx="20" cy="20"/><path style="fill:rgb(138,176,46);" d="M14.494,29.021C15.78,31.308 22.288,34.414 30.548,31.914C30.316,31.29 30.002,30.819 29.569,30.257C25.759,31.985 19.364,30.842 17.495,28.159C16.296,26.437 16.961,24.082 21.366,21.443C20.385,20.797 19.831,20.602 19.18,20.38C14.912,22.533 12.597,25.655 14.494,29.021ZM14.769,32.801C16.818,32.922 18.287,32.687 20.01,32.485C18.61,32.113 16.994,31.502 16.072,30.781C13.022,30.694 8.044,29.925 8.004,26.907C8.25,24.206 12.078,23.674 14.393,24.149C14.645,23.758 14.664,23.694 14.975,23.361C13.703,22.864 12.229,22.638 10.871,22.779C8.821,23.077 6.36,24.352 6.238,26.943C5.739,31.135 10.666,32.393 14.769,32.801ZM30.937,31.725C31.242,31.568 31.671,31.38 31.936,31.09C31.494,30.363 31.351,30.065 30.805,29.598C30.499,29.771 30.226,29.959 29.921,30.121C30.293,30.567 30.583,31.064 30.937,31.725ZM24.347,30.856C26.622,30.146 27.828,26.274 27.094,24.284C25.643,24.35 25.063,24.758 24.692,24.904C25.485,27.091 22.528,29.275 20.468,29.956C21.745,30.568 23.003,30.819 24.347,30.856ZM32.301,30.811C34.807,28.737 34.043,25.305 30.915,23.758C28.264,22.357 25.005,23.348 22.85,25.543C22.398,25.967 22.116,26.52 21.865,27.077C22.153,27.182 22.329,26.561 22.569,26.391C24.631,23.753 30.067,22.662 31.813,27.152C31.959,27.852 31.732,28.879 31.166,29.367C31.648,29.866 31.925,30.237 32.301,30.811ZM19.59,27.157C19.692,27.276 19.696,27.28 19.727,27.28C19.746,27.28 19.76,27.276 19.763,27.269C19.765,27.263 19.738,27.208 19.704,27.147C19.495,26.781 19.47,26.747 18.933,26.083L18.443,25.476L18.152,25.183C17.87,24.899 17.768,24.81 17.739,24.822C17.704,24.835 17.345,25.476 17.356,25.506C17.359,25.512 17.394,25.537 17.434,25.562C18.061,25.945 18.743,26.415 19.204,26.784C19.361,26.909 19.461,27.007 19.59,27.157ZM24.391,24.132C25.122,23.631 25.797,23.335 26.652,23.184C24.982,20.292 21.613,18.827 18.454,17.674C18.112,18.36 17.914,19.005 18.03,19.844C20.404,20.33 22.937,21.691 24.391,24.132ZM24.215,12.748C24.325,12.745 24.444,12.797 24.526,12.902C25.314,13.503 26.021,14.313 26.143,15.274C26.513,16.497 26.411,17.889 25.7,18.825C25.333,19.362 24.763,19.775 23.971,20.094C23.458,19.678 22.613,19.179 21.788,18.888C22.583,18.491 23.803,17.846 24.183,17.106C24.511,16.486 24.153,16.015 23.636,15.723C23.257,15.636 22.853,15.566 22.539,15.32C22.41,15.193 22.268,14.796 22.437,14.743C22.544,14.957 22.684,14.278 22.726,14.567C22.618,14.741 22.764,15.187 22.841,14.786C22.88,14.631 23.11,14.446 22.979,14.738C22.822,15.138 23.343,15.009 23.569,14.972C23.845,14.915 24.13,14.752 24.374,14.7C24.292,14.367 24.368,14.018 24.287,13.684C24.071,13.629 23.822,14.102 23.754,14.002C23.733,13.708 24.178,13.592 24.129,13.376C24,13.192 23.668,13.53 23.533,13.655C23.442,13.75 23.3,14.017 23.387,13.735C23.426,13.415 23.692,13.208 23.941,13.042C23.948,12.848 24.074,12.752 24.215,12.748ZM17.315,19.73C17.295,18.96 17.444,18.023 17.796,17.483C17.87,17.393 16.948,17.162 16.758,17.033C16.351,17.442 15.999,18.579 16.045,19.483C16.626,19.631 16.821,19.636 17.315,19.73ZM15.011,4.707C12.699,4.882 9.801,6.179 9.84,9.679C9.729,10.958 10.117,12.212 10.558,13.394C10.88,14.454 10.882,15.637 11.483,16.597C12.305,18.046 13.553,18.813 15.249,19.296L15.35,19.324L15.448,19.342C15.389,18.43 15.666,17.5 16.178,16.747C14.231,15.705 13.698,11.962 15.832,10.327C16.816,9.481 19.449,8.476 20.816,9.669C21.038,10.325 20.102,10.935 20.368,11.686C20.523,12.283 20.717,11.527 20.943,11.791C21.58,12.007 20.394,11.295 20.939,11.565C21.668,11.865 20.629,11.364 21.04,11.112C21.315,10.84 22.024,10.381 22.154,10.433C22.338,10.877 23.107,11.688 22.216,11.854C21.318,11.799 22.427,12.1 22.73,11.954C23.345,11.697 22.766,12.299 22.299,12.162C22.469,12.433 23.118,12.145 23.341,12.261C24.113,12.377 24.059,11.534 23.925,11.021C23.935,9.912 23.236,9.015 22.655,8.136C22.207,7.328 21.4,6.837 20.689,6.293C19.437,5.164 16.954,4.56 15.011,4.707ZM12.752,16.929C11.108,14.153 11.871,10.235 13.825,8.548C15.415,7.175 19.295,6.51 21.928,8.292C19.065,6.929 16.065,7.266 14.314,8.696C12.687,10.024 11.169,13.94 12.752,16.929ZM24.777,13.815C24.735,13.818 24.759,14.007 24.791,14.077C24.826,14.152 24.886,14.178 24.931,14.137C24.957,14.113 24.973,14.056 24.965,14.016C24.958,13.979 24.925,13.92 24.905,13.909C24.891,13.901 24.809,13.812 24.777,13.815ZM23.07,10.387C23.036,10.391 23.017,10.419 23.013,10.472C23.009,10.537 23.028,10.59 23.072,10.632C23.109,10.666 23.148,10.715 23.188,10.696C23.226,10.679 23.222,10.586 23.217,10.529C23.212,10.463 23.192,10.427 23.146,10.405C23.115,10.39 23.09,10.384 23.07,10.387Z"/></g></svg>