<!DOCTYPE svg PUBLIC "-//W3C//DTD SVG 1.1//EN" "http://www.w3.org/Graphics/SVG/1.1/DTD/svg11.dtd"><svg contentScriptType="application/ecmascript" xmlns:serif="http://www.serif.com/" width="80px" xmlns:xlink="http://www.w3.org/1999/xlink" zoomAndPan="magnify" style="fill-rule:evenodd;clip-rule:evenodd;stroke-linejoin:round;stroke-miterlimit:2;" contentStyleType="text/css" height="80px" preserveAspectRatio="xMidYMid meet" xmlns="http://www.w3.org/2000/svg" xml:space="preserve" version="1.1">
    <g transform="matrix(1.69333,0,0,1.69333,-27.7333,-27.7333)">
        <g transform="matrix(9.45238e-17,-1.54369,1.54369,9.45238e-17,-1033.27,271.605)">
            <circle r="15.302" style="fill:url(#_Radial1);" cx="150.033" cy="695.26"/>
            <path style="fill:white;" d="M150.033,679.957C158.479,679.957 165.335,686.814 165.335,695.26C165.335,703.705 158.479,710.562 150.033,710.562C141.587,710.562 134.731,703.705 134.731,695.26C134.731,686.814 141.587,679.957 150.033,679.957ZM150.033,680.722C158.056,680.722 164.57,687.236 164.57,695.26C164.57,703.283 158.056,709.797 150.033,709.797C142.01,709.797 135.496,703.283 135.496,695.26C135.496,687.236 142.01,680.722 150.033,680.722Z"/>
        </g>
        <g>
            <g transform="matrix(0.266667,0,0,0.266667,-225.484,-185.574)">
                <path style="fill:rgb(0,3,25);" d="M958.908,786.109L964.625,797.767C949.333,807.666 938.432,824.46 937.697,843.678C936.994,862.039 945.753,880.445 960.362,891.585C975.522,903.146 996.578,906.582 1014.81,900.191C1021.74,897.762 1028.15,893.944 1033.66,889.108L1042.8,897.566C1024.21,913.91 996.808,920.618 972.186,911.987C951.256,904.651 934.206,886.858 927.951,865.494C920.005,838.354 930.242,806.827 953.796,789.524C955.45,788.309 957.156,787.17 958.908,786.109ZM1046.44,873.312L1058.04,878.205C1057.39,879.448 1056.71,880.671 1055.98,881.872C1054.4,884.495 1052.64,886.996 1050.71,889.364L1041.48,880.817C1043.32,878.445 1044.98,875.935 1046.44,873.312ZM1052.86,854.082L1065.36,854.73C1064.8,859.137 1063.82,863.493 1062.44,867.716L1050.92,862.859C1051.01,862.567 1051.1,862.275 1051.18,861.983C1051.94,859.39 1052.5,856.749 1052.86,854.082ZM1064.2,830.212C1064.32,830.736 1064.43,831.263 1064.54,831.792C1065.33,835.604 1065.78,839.484 1065.91,843.375L1053.26,842.72C1053.08,839.761 1052.66,836.814 1052.04,833.914L1064.2,830.212ZM1054.41,807.805C1056.85,811.436 1058.96,815.309 1060.68,819.39L1048.58,823.076C1047.42,820.365 1046.05,817.743 1044.49,815.244L1054.41,807.805ZM1037.6,790.211C1041.08,792.806 1044.33,795.71 1047.31,798.887L1037.51,806.24C1035.48,804.125 1033.28,802.176 1030.96,800.404L1037.6,790.211ZM1015.97,779.084C1020.1,780.392 1024.11,782.079 1027.95,784.109L1021.24,794.407C1018.64,793.131 1015.94,792.045 1013.18,791.16L1015.97,779.084Z"/>
            </g>
            <g transform="matrix(0.370031,-0.212418,0.213638,0.367919,-507.8,-66.3322)">
                <path style="fill:rgb(0,3,25);" d="M982.278,826.611L982.278,808.895L995.565,817.753L982.278,826.611Z"/>
            </g>
            <g transform="matrix(0.323182,0,0,0.363061,-281.748,-259.989)">
                <path style="fill:rgb(0,3,25);" d="M990.408,775.185L990.408,792.493L1000.72,792.493L1000.72,775.185L990.408,775.185Z"/>
            </g>
        </g>
    </g>
    <defs>
        <radialGradient xmlns:xlink="http://www.w3.org/1999/xlink" gradientTransform="matrix(15.3023,0,-0,15.3023,150.033,695.26)" gradientUnits="userSpaceOnUse" xlink:type="simple" xlink:actuate="onLoad" r="1" cx="0" id="_Radial1" cy="0" xlink:show="other"><stop style="stop-color:rgb(145,227,247);stop-opacity:1" offset="0"/><stop style="stop-color:rgb(0,84,111);stop-opacity:1" offset="0.92"/><stop style="stop-color:rgb(0,23,38);stop-opacity:1" offset="1"/></radialGradient>
    </defs>
</svg>