<!DOCTYPE svg PUBLIC "-//W3C//DTD SVG 1.1//EN" "http://www.w3.org/Graphics/SVG/1.1/DTD/svg11.dtd"><svg contentScriptType="application/ecmascript" xmlns:serif="http://www.serif.com/" width="94px" xmlns:xlink="http://www.w3.org/1999/xlink" zoomAndPan="magnify" style="fill-rule:evenodd;clip-rule:evenodd;stroke-linejoin:round;stroke-miterlimit:1.5;" contentStyleType="text/css" height="94px" preserveAspectRatio="xMidYMid meet" xmlns="http://www.w3.org/2000/svg" xml:space="preserve" version="1.1"><g id="Odd"><path id="_6" d="M26.916,81.586C25.484,80.755 23.647,81.242 22.815,82.674C21.984,84.106 22.471,85.943 23.903,86.775C25.335,87.606 27.172,87.119 28.004,85.687C28.835,84.255 28.348,82.417 26.916,81.586Z" style="fill:white;stroke:white;stroke-width:1px;" serif:id="6"/><path id="_5" d="M21.19,77.552C19.925,76.483 18.03,76.643 16.962,77.907C15.893,79.172 16.053,81.067 17.318,82.135C18.583,83.204 20.477,83.044 21.545,81.779C22.614,80.515 22.454,78.62 21.19,77.552Z" style="fill:white;stroke:white;stroke-width:1px;" serif:id="5"/><path id="_4" d="M16.255,72.58C15.196,71.307 13.303,71.134 12.03,72.193C10.757,73.252 10.584,75.145 11.643,76.418C12.702,77.691 14.595,77.864 15.868,76.805C17.14,75.746 17.314,73.853 16.255,72.58Z" style="fill:white;stroke:white;stroke-width:1px;" serif:id="4"/><path id="_3" d="M12.263,66.824C11.442,65.386 9.609,64.885 8.171,65.706C6.733,66.526 6.231,68.36 7.052,69.798C7.873,71.236 9.707,71.737 11.145,70.917C12.583,70.096 13.084,68.262 12.263,66.824Z" style="fill:white;stroke:white;stroke-width:1px;" serif:id="3"/><path id="_2" d="M9.337,60.46C8.78,58.901 7.061,58.087 5.502,58.645C3.943,59.202 3.13,60.92 3.687,62.479C4.244,64.038 5.963,64.852 7.522,64.294C9.081,63.737 9.894,62.019 9.337,60.46Z" style="fill:white;stroke:white;stroke-width:1px;" serif:id="2"/><path id="_1" d="M7.566,53.683C7.289,52.05 5.739,50.949 4.107,51.226C2.474,51.503 1.374,53.053 1.65,54.685C1.927,56.318 3.477,57.418 5.11,57.142C6.742,56.865 7.843,55.315 7.566,53.683Z" style="fill:white;stroke:white;stroke-width:1px;" serif:id="1"/></g></svg>