<!DOCTYPE svg PUBLIC "-//W3C//DTD SVG 1.1//EN" "http://www.w3.org/Graphics/SVG/1.1/DTD/svg11.dtd"><svg contentScriptType="application/ecmascript" xmlns:serif="http://www.serif.com/" width="94px" xmlns:xlink="http://www.w3.org/1999/xlink" zoomAndPan="magnify" style="fill-rule:evenodd;clip-rule:evenodd;stroke-linejoin:round;stroke-miterlimit:1.5;" contentStyleType="text/css" height="94px" preserveAspectRatio="xMidYMid meet" xmlns="http://www.w3.org/2000/svg" xml:space="preserve" version="1.1"><g id="Odd"><circle r="3" style="fill:rgb(255,0,0);stroke:white;stroke-width:1px;" cx="47" cy="89.994"/><path style="fill:rgb(255,0,0);stroke:white;stroke-width:1px;" d="M53.978,86.381C55.608,86.092 57.166,87.181 57.455,88.811C57.744,90.442 56.655,92 55.025,92.289C53.394,92.578 51.836,91.489 51.547,89.858C51.258,88.228 52.348,86.67 53.978,86.381Z"/><path style="fill:rgb(255,0,0);stroke:white;stroke-width:1px;" d="M60.742,84.559C62.297,83.991 64.021,84.791 64.59,86.346C65.159,87.901 64.358,89.625 62.803,90.194C61.248,90.763 59.524,89.963 58.955,88.408C58.386,86.853 59.187,85.128 60.742,84.559Z"/><path style="fill:rgb(255,0,0);stroke:white;stroke-width:1px;" d="M40.022,86.381C38.392,86.092 36.834,87.181 36.545,88.811C36.256,90.442 37.345,92 38.975,92.289C40.606,92.578 42.164,91.489 42.453,89.858C42.742,88.228 41.652,86.67 40.022,86.381Z"/><path style="fill:rgb(255,0,0);stroke:white;stroke-width:1px;" d="M33.258,84.559C31.703,83.991 29.979,84.791 29.41,86.346C28.841,87.901 29.642,89.625 31.197,90.194C32.752,90.763 34.476,89.963 35.045,88.408C35.614,86.853 34.813,85.128 33.258,84.559Z"/></g></svg>